<svg xmlns="http://www.w3.org/2000/svg" width="640" height="150" viewBox="0 0 640 150" role="img" aria-label="Swarmglass — a Quantara research project">
  <defs>
    <linearGradient id="flag" x1="0" x2="1"><stop offset="0" stop-color="#5BCEFA"/><stop offset=".2" stop-color="#5BCEFA"/><stop offset=".2" stop-color="#F5A9B8"/><stop offset=".4" stop-color="#F5A9B8"/><stop offset=".4" stop-color="#FFFFFF"/><stop offset=".6" stop-color="#FFFFFF"/><stop offset=".6" stop-color="#F5A9B8"/><stop offset=".8" stop-color="#F5A9B8"/><stop offset=".8" stop-color="#5BCEFA"/><stop offset="1" stop-color="#5BCEFA"/></linearGradient>
    <radialGradient id="ga"><stop offset="0" stop-color="#F06595" stop-opacity=".38"/><stop offset="1" stop-color="#F06595" stop-opacity="0"/></radialGradient>
    <radialGradient id="gb"><stop offset="0" stop-color="#A78BFA" stop-opacity=".30"/><stop offset="1" stop-color="#A78BFA" stop-opacity="0"/></radialGradient>
  </defs>
  <rect width="640" height="150" fill="#FFF3F6"/>
  <rect width="640" height="3" fill="url(#flag)"/>
  <circle cx="520" cy="70" r="90" fill="url(#ga)"/>
  <circle cx="470" cy="100" r="70" fill="url(#gb)"/>
  <g fill="none" stroke="#D6336C" opacity=".35">
    <ellipse cx="510" cy="76" rx="58" ry="52" transform="rotate(12 510 76)"/>
    <ellipse cx="510" cy="76" rx="84" ry="76" transform="rotate(-18 510 76)" stroke-dasharray="2 6"/>
    <ellipse cx="510" cy="76" rx="110" ry="98" transform="rotate(30 510 76)" opacity=".6"/>
  </g>
  <g fill="#2E0F1E">
    <ellipse cx="484" cy="92" rx="4.5" ry="3.2"/><ellipse cx="491" cy="91" rx="3" ry="2.5"/><ellipse cx="497" cy="90" rx="4" ry="3"/>
    <ellipse cx="526" cy="58" rx="4.5" ry="3.2"/><ellipse cx="533" cy="57" rx="3" ry="2.5"/><ellipse cx="539" cy="56" rx="4" ry="3"/>
    <ellipse cx="546" cy="104" rx="4.5" ry="3.2"/><ellipse cx="553" cy="103" rx="3" ry="2.5"/><ellipse cx="559" cy="102" rx="4" ry="3"/>
  </g>
  <text x="36" y="72" font-family="Iowan Old Style, Palatino Linotype, Palatino, Georgia, serif" font-size="46" font-weight="500" fill="#2E0F1E" letter-spacing="-1.5">swarmglass</text>
  <text x="38" y="98" font-family="Iowan Old Style, Palatino Linotype, Palatino, Georgia, serif" font-size="19" font-style="italic" fill="#D6336C">a quantara research project</text>
  <text x="38" y="124" font-family="ui-monospace, Cascadia Mono, Menlo, monospace" font-size="11" fill="#A2718A" letter-spacing="1.5">PASSIVE · REPRODUCIBLE · PRIVACY-CONSCIOUS AGENT OBSERVATION</text>
</svg>
